<svg width="1691" height="879" viewBox="0 0 1691 879" fill="none" xmlns="http://www.w3.org/2000/svg">
<mask id="mask0_558_38" style="mask-type:alpha" maskUnits="userSpaceOnUse" x="519" y="722" width="73" height="73">
<rect width="72.1076" height="72.1076" transform="matrix(-1 0 0 1 592 722)" fill="#146C94"/>
</mask>
<g mask="url(#mask0_558_38)">
<path d="M570.622 790.352L561.586 744.239C561.343 743.018 560.763 742.088 559.847 741.449C558.93 740.809 557.973 740.489 556.975 740.489C555.958 740.489 555.014 740.711 554.144 741.154C553.273 741.597 552.576 742.261 552.052 743.147L549.048 747.954C548.108 749.464 546.804 750.866 545.136 752.158C543.468 753.45 541.506 754.429 539.249 755.096V749.503H535.666V790.352H539.249V759.712C541.768 759.161 544.155 758.203 546.41 756.838C548.666 755.472 550.679 753.73 552.451 751.612L554.629 762.532L548.262 768.599V790.352H552.769V772.47L560.407 765.999L565.844 790.352L570.622 790.352ZM569.981 760.538L575.585 759.481C576.194 759.35 576.675 759.033 577.03 758.531C577.384 758.028 577.496 757.457 577.365 756.818L575.112 745.025C574.83 743.635 574.075 742.524 572.847 741.694C571.618 740.864 570.308 740.59 568.918 740.871L566.214 741.431L569.981 760.538ZM552.018 738.063C553.535 738.063 554.839 737.518 555.929 736.428C557.019 735.337 557.564 734.034 557.564 732.516C557.564 730.998 557.019 729.694 555.929 728.604C554.839 727.514 553.535 726.969 552.018 726.969C550.5 726.969 549.196 727.514 548.106 728.604C547.016 729.694 546.471 730.998 546.471 732.516C546.471 734.034 547.016 735.337 548.106 736.428C549.196 737.518 550.5 738.063 552.018 738.063Z" fill="#146C94"/>
</g>
<mask id="mask1_558_38" style="mask-type:alpha" maskUnits="userSpaceOnUse" x="472" y="722" width="73" height="73">
<rect width="72.1076" height="72.1076" transform="matrix(-1 0 0 1 544.107 722)" fill="#146C94"/>
</mask>
<g mask="url(#mask1_558_38)">
<path d="M531.426 790.352L525.735 764.525H522.106L527.797 790.352L531.426 790.352ZM522.095 790.352L513.682 747.469L520.824 750.352V760.307H525.33V747.399L510.88 741.315C509.466 740.734 508.095 740.633 506.766 741.012C505.437 741.391 504.376 742.199 503.582 743.436L500.607 748.214C499.305 750.317 497.545 752.064 495.326 753.455C493.107 754.845 490.59 755.608 487.774 755.743V760.249C490.983 760.153 493.993 759.334 496.805 757.794C499.617 756.253 501.99 754.153 503.923 751.496L506.159 762.792L499.792 768.887V790.352H504.299V772.816L511.822 765.623L517.403 790.352L522.095 790.352ZM503.548 738.062C505.065 738.062 506.369 737.517 507.459 736.427C508.549 735.337 509.094 734.033 509.094 732.515C509.094 730.998 508.549 729.694 507.459 728.604C506.369 727.514 505.065 726.969 503.548 726.969C502.03 726.969 500.726 727.514 499.636 728.604C498.546 729.694 498.001 730.998 498.001 732.515C498.001 734.033 498.546 735.337 499.636 736.427C500.726 737.517 502.03 738.062 503.548 738.062ZM491.068 790.352V764.525H487.485V790.352H491.068Z" fill="#146C94"/>
</g>
<mask id="mask2_558_38" style="mask-type:alpha" maskUnits="userSpaceOnUse" x="720" y="716" width="99" height="99">
<rect x="720" y="716" width="98.912" height="98.912" fill="#D9D9D9"/>
</mask>
<g mask="url(#mask2_558_38)">
<path d="M733.158 796.366V758.085L755.825 735.418L778.493 758.085V796.366H733.158ZM739.34 790.184H752.18V779.247H759.471V790.184H772.311V760.613L755.825 744.128L739.34 760.613V790.184ZM752.18 769.102V761.81H759.471V769.102H752.18ZM785.943 796.405V755.002L766.358 735.418H775.108L792.124 752.434V796.405H785.943ZM799.575 796.405V749.351L785.641 735.418H794.431L805.756 746.783V796.405H799.575Z" fill="#146C94"/>
</g>
<mask id="mask3_558_38" style="mask-type:alpha" maskUnits="userSpaceOnUse" x="1115" y="671" width="99" height="99">
<rect x="1115" y="671" width="98.912" height="98.912" fill="#D9D9D9"/>
</mask>
<g mask="url(#mask3_558_38)">
<path d="M1138.14 747.245V752.396C1138.14 753.272 1137.85 754.006 1137.26 754.599C1136.66 755.191 1135.93 755.487 1135.05 755.487H1132.52C1131.64 755.487 1130.91 755.191 1130.31 754.599C1129.72 754.006 1129.43 753.272 1129.43 752.396V720.773L1137.84 696.758C1138.15 695.813 1138.71 695.061 1139.53 694.504C1140.35 693.946 1141.26 693.667 1142.27 693.667H1186.81C1187.77 693.667 1188.65 693.951 1189.43 694.518C1190.22 695.084 1190.77 695.831 1191.07 696.758L1199.49 720.773V752.396C1199.49 753.272 1199.19 754.006 1198.6 754.599C1198.01 755.191 1197.27 755.487 1196.4 755.487H1193.86C1192.99 755.487 1192.25 755.191 1191.66 754.599C1191.07 754.006 1190.77 753.272 1190.77 752.396V747.245H1138.14ZM1138.11 714.591H1190.8L1185.6 699.849H1143.31L1138.11 714.591ZM1145.76 736.307C1147.26 736.307 1148.53 735.782 1149.58 734.733C1150.62 733.683 1151.14 732.408 1151.14 730.909C1151.14 729.409 1150.62 728.137 1149.57 727.094C1148.52 726.05 1147.24 725.528 1145.74 725.528C1144.24 725.528 1142.97 726.053 1141.93 727.103C1140.88 728.153 1140.36 729.428 1140.36 730.927C1140.36 732.427 1140.89 733.698 1141.94 734.742C1142.99 735.786 1144.26 736.307 1145.76 736.307ZM1183.17 736.307C1184.67 736.307 1185.94 735.782 1186.99 734.733C1188.03 733.683 1188.55 732.408 1188.55 730.909C1188.55 729.409 1188.03 728.137 1186.98 727.094C1185.93 726.05 1184.65 725.528 1183.15 725.528C1181.65 725.528 1180.38 726.053 1179.34 727.103C1178.29 728.153 1177.77 729.428 1177.77 730.927C1177.77 732.427 1178.3 733.698 1179.35 734.742C1180.4 735.786 1181.67 736.307 1183.17 736.307ZM1135.61 741.063H1193.31V720.773H1135.61V741.063Z" fill="#146C94"/>
</g>
<mask id="mask4_558_38" style="mask-type:alpha" maskUnits="userSpaceOnUse" x="1521" y="537" width="99" height="99">
<rect x="1521" y="537" width="98.912" height="98.912" fill="#D9D9D9"/>
</mask>
<g mask="url(#mask4_558_38)">
<path d="M1527.18 605.002V567.91H1533.37V598.82H1567.37V567.91H1599.31C1603.27 567.91 1606.67 569.323 1609.49 572.147C1612.32 574.972 1613.73 578.368 1613.73 582.335V605.002H1527.18ZM1573.55 598.82H1607.55V582.335C1607.55 580.068 1606.74 578.128 1605.13 576.513C1603.51 574.899 1601.57 574.092 1599.31 574.092H1573.55V598.82ZM1549.86 592.876C1552.78 592.876 1555.27 591.85 1557.32 589.8C1559.37 587.749 1560.39 585.259 1560.39 582.33C1560.39 579.401 1559.37 576.912 1557.32 574.865C1555.27 572.817 1552.78 571.794 1549.85 571.794C1546.92 571.794 1544.43 572.819 1542.38 574.87C1540.33 576.92 1539.31 579.41 1539.31 582.339C1539.31 585.269 1540.34 587.757 1542.39 589.805C1544.44 591.852 1546.93 592.876 1549.86 592.876ZM1549.85 586.694C1548.63 586.694 1547.6 586.272 1546.76 585.43C1545.91 584.587 1545.49 583.555 1545.49 582.335C1545.49 581.114 1545.91 580.083 1546.76 579.24C1547.6 578.397 1548.63 577.976 1549.85 577.976C1551.07 577.976 1552.1 578.397 1552.95 579.24C1553.79 580.083 1554.21 581.114 1554.21 582.335C1554.21 583.555 1553.79 584.587 1552.95 585.43C1552.1 586.272 1551.07 586.694 1549.85 586.694Z" fill="#146C94"/>
</g>
<mask id="mask5_558_38" style="mask-type:alpha" maskUnits="userSpaceOnUse" x="907" y="412" width="99" height="99">
<rect x="907" y="412" width="98.912" height="98.912" fill="#D9D9D9"/>
</mask>
<g mask="url(#mask5_558_38)">
<path d="M930.144 488.245V493.396C930.144 494.272 929.848 495.006 929.255 495.599C928.663 496.191 927.929 496.487 927.053 496.487H924.517C923.641 496.487 922.907 496.191 922.314 495.599C921.722 495.006 921.426 494.272 921.426 493.396V461.773L929.843 437.758C930.149 436.813 930.712 436.061 931.531 435.504C932.35 434.946 933.261 434.667 934.265 434.667H978.807C979.772 434.667 980.647 434.951 981.434 435.518C982.221 436.084 982.767 436.831 983.071 437.758L991.488 461.773V493.396C991.488 494.272 991.192 495.006 990.6 495.599C990.007 496.191 989.273 496.487 988.397 496.487H985.861C984.985 496.487 984.251 496.191 983.659 495.599C983.066 495.006 982.77 494.272 982.77 493.396V488.245H930.144ZM930.112 455.591H982.802L977.603 440.849H935.311L930.112 455.591ZM937.762 477.307C939.261 477.307 940.533 476.782 941.577 475.733C942.62 474.683 943.142 473.408 943.142 471.909C943.142 470.409 942.617 469.137 941.567 468.094C940.517 467.05 939.243 466.528 937.743 466.528C936.244 466.528 934.972 467.053 933.928 468.103C932.885 469.153 932.363 470.428 932.363 471.927C932.363 473.427 932.888 474.698 933.938 475.742C934.988 476.786 936.262 477.307 937.762 477.307ZM975.171 477.307C976.67 477.307 977.942 476.782 978.986 475.733C980.029 474.683 980.551 473.408 980.551 471.909C980.551 470.409 980.026 469.137 978.976 468.094C977.926 467.05 976.652 466.528 975.152 466.528C973.653 466.528 972.381 467.053 971.337 468.103C970.294 469.153 969.772 470.428 969.772 471.927C969.772 473.427 970.297 474.698 971.347 475.742C972.397 476.786 973.671 477.307 975.171 477.307ZM927.608 482.063H985.306V461.773H927.608V482.063Z" fill="#146C94"/>
</g>
<mask id="mask6_558_38" style="mask-type:alpha" maskUnits="userSpaceOnUse" x="634" y="94" width="100" height="100">
<rect x="634.809" y="94.4834" width="98.912" height="98.912" fill="#D9D9D9"/>
</mask>
<g mask="url(#mask6_558_38)">
<path d="M652.673 170.648L645.794 145.968C645.614 145.223 645.687 144.381 646.012 143.44C646.337 142.5 646.999 141.863 647.997 141.53L653.355 139.675V121.272C653.355 119.19 654.076 117.428 655.519 115.986C656.961 114.543 658.723 113.822 660.805 113.822H673.962V101.458H694.568V113.822H707.725C709.806 113.822 711.569 114.543 713.011 115.986C714.454 117.428 715.175 119.19 715.175 121.272V139.675L720.533 141.53C721.711 141.974 722.45 142.649 722.752 143.555C723.053 144.461 723.1 145.266 722.894 145.968L715.856 170.648C712.898 170.252 710.215 169.267 707.808 167.692C705.401 166.118 703.049 164.039 700.75 161.455C698.531 164.012 696.073 166.197 693.375 168.009C690.678 169.822 687.641 170.728 684.265 170.728C680.889 170.728 677.852 169.822 675.154 168.009C672.457 166.197 669.999 164.012 667.78 161.455C665.508 164.039 663.162 166.118 660.742 167.692C658.322 169.267 655.632 170.252 652.673 170.648ZM644.082 187.213V181.031H651.294C654.179 181.031 657.03 180.585 659.846 179.692C662.662 178.799 665.307 177.459 667.78 175.674C670.252 177.459 672.897 178.765 675.713 179.589C678.529 180.413 681.38 180.825 684.265 180.825C687.15 180.825 690 180.413 692.817 179.589C695.633 178.765 698.277 177.459 700.75 175.674C703.223 177.459 705.868 178.799 708.684 179.692C711.5 180.585 714.351 181.031 717.236 181.031H724.448V187.213H717.236C714.351 187.213 711.534 186.87 708.787 186.183C706.039 185.496 703.36 184.466 700.75 183.092C698.14 184.466 695.444 185.496 692.662 186.183C689.88 186.87 687.081 187.213 684.265 187.213C681.449 187.213 678.65 186.87 675.868 186.183C673.086 185.496 670.39 184.466 667.78 183.092C665.169 184.466 662.491 185.496 659.743 186.183C656.995 186.87 654.179 187.213 651.294 187.213L644.082 187.213ZM659.537 137.631L684.265 129.594L708.993 137.631V121.272C708.993 120.902 708.874 120.598 708.636 120.36C708.398 120.123 708.095 120.004 707.725 120.004H660.805C660.435 120.004 660.131 120.123 659.894 120.36C659.656 120.598 659.537 120.902 659.537 121.272V137.631ZM684.265 164.546C687.493 164.546 690.21 163.419 692.416 161.166C694.622 158.912 697.4 155.849 700.75 151.976C704.021 155.685 706.247 158.213 707.428 159.561C708.609 160.908 710.023 162.063 711.672 163.024L716.205 146.618L684.265 136.109L652.198 146.618L656.858 162.897C658.507 161.936 659.921 160.837 661.102 159.6C662.283 158.364 664.509 155.822 667.78 151.976C671.214 155.891 674.013 158.965 676.177 161.197C678.341 163.43 681.037 164.546 684.265 164.546Z" fill="#146C94"/>
</g>
<mask id="mask7_558_38" style="mask-type:alpha" maskUnits="userSpaceOnUse" x="98" y="98" width="100" height="100">
<rect x="98.9121" y="98.9121" width="98.912" height="98.912" fill="#D9D9D9"/>
</mask>
<g mask="url(#mask7_558_38)">
<path d="M112.307 184.43V178.248H184.43V184.43H112.307ZM176.837 163.411L112.307 145.515V125.067L117.062 126.573L119.947 135.307L141.156 141.267V108.502L147.576 110.088L158.909 146.149L180.071 152.078C181.413 152.41 182.475 153.12 183.257 154.206C184.039 155.291 184.43 156.505 184.43 157.847C184.43 159.771 183.635 161.313 182.044 162.476C180.454 163.638 178.718 163.95 176.837 163.411Z" fill="#146C94"/>
</g>
<path d="M89.3391 70.7492C112.45 69.6337 134.277 94.7698 103.429 116.485C64.87 143.629 45.2186 168.542 64.4982 175.236C83.7778 181.929 110.473 164.08 119 157.759" stroke="#156D93" stroke-width="3"/>
<mask id="mask8_558_38" style="mask-type:alpha" maskUnits="userSpaceOnUse" x="0" y="0" width="99" height="99">
<rect width="98.912" height="98.912" fill="#D9D9D9"/>
</mask>
<g mask="url(#mask8_558_38)">
<path d="M13.118 85.5177V79.3359H85.2412V85.5177H13.118ZM20.1877 64.7526L9.63086 46.6664L14.5921 45.6677L21.8838 52.0558L42.9343 46.381L26.2429 18.1499L32.4565 16.2319L60.6877 41.4989L81.7698 35.8559C83.6509 35.3433 85.3522 35.696 86.8739 36.9139C88.3956 38.1318 89.1565 39.7446 89.1565 41.7525C89.1565 43.0523 88.7721 44.2001 88.0033 45.196C87.2345 46.192 86.2346 46.8565 85.0035 47.1893L20.1877 64.7526Z" fill="#146C94"/>
</g>
<path d="M136 100.255C180.697 83.6201 302.967 66.2461 391.992 70.3122C483.507 74.492 594.421 96.5581 643.182 114.302" stroke="#19A7CE" stroke-width="3"/>
<path d="M1564.09 624.397C1448.17 721.527 1289.99 731.251 1225.39 723.972" stroke="#19A7CE" stroke-width="3"/>
<path d="M1102.72 730.755C993.763 756.626 875.507 760.073 829.999 758.562" stroke="#19A7CE" stroke-width="3"/>
<path d="M708.462 771.044C659.455 779.429 607.785 770.508 588.076 765" stroke="#19A7CE" stroke-width="3"/>
<path d="M911.761 457.556C877.649 447.581 793.049 415.111 751.043 368.58C707.861 320.748 678.278 235.609 666.089 199" stroke="#19A7CE" stroke-width="3"/>
<path d="M1021 490.751C1236.35 422.029 1464.06 488.283 1551 530" stroke="#19A7CE" stroke-width="3"/>
<circle cx="536" cy="853" r="24.5" stroke="#26779C" stroke-width="3"/>
<path d="M525.678 838.357H546.383V842.047H525.678V838.357ZM543.267 839.915L546.383 842.047L535.149 868H530.967L543.267 839.915Z" fill="#26779C"/>
<circle cx="769" cy="853" r="24.5" stroke="#26779C" stroke-width="3"/>
<path d="M762.249 847.746L769.178 838.357H773.852L765.365 849.632L764.463 849.345C765.255 848.744 766.075 848.306 766.923 848.033C767.797 847.732 768.672 847.582 769.547 847.582C771.597 847.582 773.387 848.033 774.918 848.935C776.476 849.81 777.678 851.026 778.526 852.584C779.4 854.142 779.838 855.905 779.838 857.873C779.838 859.95 779.359 861.795 778.403 863.408C777.473 864.993 776.189 866.237 774.549 867.139C772.936 868.041 771.105 868.492 769.055 868.492C767.005 868.492 765.146 868.027 763.479 867.098C761.839 866.169 760.54 864.898 759.584 863.285C758.627 861.672 758.149 859.868 758.149 857.873C758.149 856.698 758.272 855.604 758.518 854.593C758.791 853.582 759.228 852.529 759.83 851.436C760.431 850.343 761.237 849.113 762.249 847.746ZM762.249 857.914C762.249 859.281 762.536 860.497 763.11 861.563C763.684 862.602 764.476 863.422 765.488 864.023C766.526 864.597 767.715 864.884 769.055 864.884C770.367 864.884 771.528 864.597 772.54 864.023C773.551 863.422 774.344 862.602 774.918 861.563C775.492 860.497 775.779 859.281 775.779 857.914C775.779 856.547 775.492 855.345 774.918 854.306C774.344 853.267 773.551 852.461 772.54 851.887C771.528 851.286 770.367 850.985 769.055 850.985C767.715 850.985 766.526 851.286 765.488 851.887C764.476 852.461 763.684 853.267 763.11 854.306C762.536 855.345 762.249 856.547 762.249 857.914Z" fill="#26779C"/>
<circle cx="1164" cy="801" r="24.5" stroke="#26779C" stroke-width="3"/>
<path d="M1164.36 816.492C1162.34 816.492 1160.57 816.096 1159.07 815.303C1157.6 814.483 1156.43 813.349 1155.59 811.9C1154.77 810.424 1154.36 808.702 1154.36 806.734H1158.33C1158.33 808.647 1158.88 810.151 1159.97 811.244C1161.07 812.337 1162.56 812.884 1164.44 812.884C1165.78 812.884 1166.94 812.611 1167.93 812.064C1168.91 811.49 1169.68 810.711 1170.22 809.727C1170.77 808.716 1171.04 807.54 1171.04 806.201C1171.04 804.916 1170.78 803.782 1170.26 802.798C1169.74 801.787 1168.99 800.994 1168.01 800.42C1167.05 799.846 1165.88 799.559 1164.48 799.559C1163.25 799.559 1162.09 799.832 1161 800.379C1159.9 800.898 1159.02 801.582 1158.33 802.429L1154.93 801.568L1158.54 786.357H1173.38V790.047H1160.01L1161.86 788.407L1159.11 799.436L1157.76 799.723C1158.52 798.548 1159.56 797.659 1160.88 797.058C1162.19 796.429 1163.64 796.115 1165.22 796.115C1167.24 796.115 1168.99 796.552 1170.47 797.427C1171.95 798.274 1173.09 799.45 1173.91 800.953C1174.73 802.456 1175.14 804.151 1175.14 806.037C1175.14 808.087 1174.68 809.905 1173.75 811.49C1172.85 813.048 1171.59 814.278 1169.98 815.18C1168.39 816.055 1166.52 816.492 1164.36 816.492Z" fill="#26779C"/>
<circle cx="1665" cy="586" r="24.5" stroke="#26779C" stroke-width="3"/>
<path d="M1673.05 571.357V601H1669.2V571.357H1673.05ZM1653.86 591.447L1667.84 571.357H1672.15L1658.04 591.693L1653.86 591.447ZM1676.58 595.014H1653.86V591.447H1676.58V595.014Z" fill="#26779C"/>
<circle cx="956" cy="386" r="24.5" stroke="#26779C" stroke-width="3"/>
<path d="M965.382 374.596L954.517 384.969L951.893 383.001L962.389 372.915L962.184 374.924H946.973V371.357H965.382V374.596ZM954.845 385.666H951.893V383.001C952.357 382.7 952.931 382.509 953.615 382.427C954.325 382.318 955.009 382.263 955.665 382.263C957.113 382.263 958.466 382.482 959.724 382.919C960.981 383.329 962.088 383.944 963.045 384.764C964.029 385.584 964.78 386.582 965.3 387.757C965.846 388.905 966.12 390.217 966.12 391.693C966.12 393.688 965.655 395.424 964.726 396.9C963.824 398.376 962.566 399.51 960.954 400.303C959.368 401.096 957.578 401.492 955.583 401.492C953.642 401.492 951.92 401.109 950.417 400.344C948.913 399.579 947.724 398.472 946.85 397.023C946.002 395.547 945.579 393.798 945.579 391.775H949.556C949.556 393.688 950.102 395.192 951.196 396.285C952.316 397.351 953.806 397.884 955.665 397.884C957.578 397.884 959.109 397.31 960.257 396.162C961.432 395.014 962.02 393.497 962.02 391.611C962.02 389.834 961.418 388.399 960.216 387.306C959.013 386.213 957.223 385.666 954.845 385.666Z" fill="#26779C"/>
<circle cx="787" cy="144" r="24.5" stroke="#26779C" stroke-width="3"/>
<path d="M797.102 158.959L777.094 159V155.925L786.647 147.684C787.85 146.673 788.848 145.757 789.64 144.937C790.433 144.117 791.062 143.365 791.526 142.682C791.991 141.971 792.319 141.274 792.51 140.591C792.702 139.908 792.797 139.17 792.797 138.377C792.797 136.518 792.292 135.07 791.28 134.031C790.296 132.965 788.902 132.432 787.098 132.432C785.267 132.432 783.791 133.061 782.67 134.318C781.577 135.548 781.017 137.215 780.989 139.32H776.971C777.026 137.215 777.477 135.37 778.324 133.785C779.172 132.2 780.347 130.983 781.85 130.136C783.381 129.261 785.144 128.824 787.139 128.824C789.135 128.824 790.857 129.207 792.305 129.972C793.754 130.737 794.875 131.817 795.667 133.211C796.487 134.578 796.897 136.218 796.897 138.131C796.897 139.17 796.761 140.167 796.487 141.124C796.214 142.053 795.777 142.983 795.175 143.912C794.601 144.814 793.85 145.757 792.92 146.741C791.991 147.698 790.87 148.75 789.558 149.898L781.809 156.622L780.456 155.228H797.102V158.959Z" fill="#26779C"/>
<circle cx="49" cy="249" r="24.5" stroke="#26779C" stroke-width="3"/>
<path d="M49.6997 237.965H43.4677V234.357H53.5537V264H49.6997V237.965Z" fill="#26779C"/>
</svg>
